<svg height="156" viewBox="0 0 156 156" width="156" xmlns="http://www.w3.org/2000/svg"><g fill="none" fill-rule="evenodd"><circle cx="78" cy="78" fill="#333" r="78"/><g fill="#fff" transform="translate(40 35)"><path d="m0 8.899 37.28-8.899 36.72 8.409-1.472 2.591h-70.328"/><path d="m3 13h70v7h-70z"/><path d="m3 76h70v5h-70z"/><path d="m.001 82h75.999v4h-76z"/><path d="m4.8 22.385.87-.385h4.66l.835.422.417 6.743.418 10.958v10.538l-.418 13.137-.069 8.85-1.183.352h-4.173l-1.252-.352-.487-8.85-.418-13.067v-10.537l.418-11.029z"/><path d="m64.8 22.385.87-.385h4.661l.835.422.417 6.743.417 10.958v10.538l-.417 13.137-.069 8.85-1.183.352h-4.174l-1.252-.352-.488-8.85-.417-13.067v-10.537l.417-11.029z"/><path d="m22.8 22.385.869-.385h4.661l.835.422.417 6.743.418 10.958v10.538l-.418 13.137-.068 8.85-1.184.352h-4.174l-1.253-.352-.486-8.85-.417-13.067v-10.537l.417-11.029z"/><path d="m45.8 22.385.87-.385h4.66l.835.422.417 6.743.418 10.958v10.538l-.418 13.137-.068 8.85-1.184.352h-4.174l-1.252-.352-.487-8.85-.417-13.067v-10.537l.417-11.029z"/></g></g></svg>